STARTFONT 2.1
FONT -Monotype-Century Gothic-Regular-I-Normal--33-240-100-100-P-158-iso8859-4
SIZE 24 100 100
FONTBOUNDINGBOX 43 39 -6 -7

STARTPROPERTIES 24
FOUNDRY "Monotype"
FAMILY_NAME "Century Gothic"
WEIGHT_NAME "Regular"
SLANT "I"
SETWIDTH_NAME "Normal"
ADD_STYLE_NAME ""
PIXEL_SIZE 33
POINT_SIZE 240
RESOLUTION_X 100
RESOLUTION_Y 100
SPACING "P"
AVERAGE_WIDTH 158
CHARSET_REGISTRY "iso8859"
CHARSET_ENCODING "4"
FACE_NAME "Century Gothic Italic ISO Latin4"
_DEC_DEVICE_FONTNAMES "PS=centurygothic-it-lat4"
COPYRIGHT "Copyright (c) 1993 Monotype Typography Ltd."
CAP_HEIGHT 28
X_HEIGHT 20
WEIGHT 10
QUAD_WIDTH 22
DEFAULT_CHAR 160
FONT_DESCENT 7
FONT_ASCENT 32
ENDPROPERTIES

CHARS 191

STARTCHAR space
ENCODING 32
SWIDTH 277 0
DWIDTH 9 0
BBX 0 0 0 0
BITMAP
ENDCHAR

STARTCHAR exclam
ENCODING 33
SWIDTH 295 0
DWIDTH 10 0
BBX 6 24 1 0
BITMAP
0C
0C
1C
1C
18
18
18
18
18
18
38
30
30
30
30
30
30
70
00
00
60
F0
F0
60
ENDCHAR

STARTCHAR quotedbl
ENCODING 34
SWIDTH 309 0
DWIDTH 10 0
BBX 8 8 2 16
BITMAP
C3
C3
C3
C3
C3
C3
C3
C3
ENDCHAR

STARTCHAR numbersign
ENCODING 35
SWIDTH 720 0
DWIDTH 24 0
BBX 18 25 3 0
BITMAP
030600
030600
030600
030600
030600
020600
020400
060400
7FFFC0
7FFFC0
060C00
060C00
040C00
0C0800
0C1800
FFFF80
FFFF80
0C1800
081800
081000
181000
183000
183000
183000
183000
ENDCHAR

STARTCHAR dollar
ENCODING 36
SWIDTH 554 0
DWIDTH 18 0
BBX 16 31 1 -5
BITMAP
0030
0060
01F8
07FC
0E6E
1C67
1862
18E0
18C0
1CC0
0EC0
07C0
03C0
01F0
00F8
01BC
018E
0186
0186
0186
4186
E18E
731C
7B3C
3FF0
0FE0
0300
0300
0300
0600
0600
ENDCHAR

STARTCHAR percent
ENCODING 37
SWIDTH 775 0
DWIDTH 26 0
BBX 23 26 1 -1
BITMAP
000006
07C0FC
1FFFF8
386010
303030
603060
6030C0
603180
606100
30E300
3FC600
0F0C00
001800
003000
0030F0
0063FC
00C70C
018606
030C06
030C06
060C06
0C0C0C
18061C
3007F8
2001E0
E00000
ENDCHAR

STARTCHAR ampersand
ENCODING 38
SWIDTH 757 0
DWIDTH 25 0
BBX 21 23 2 0
BITMAP
01F800
03FC00
070E00
070600
060600
070E00
071C00
033C00
03F800
01E000
07E000
0F6000
1C7000
383800
701C20
E00EF0
E00FE0
C007C0
C00F80
E03EC0
70F8E0
7FF070
1F8038
ENDCHAR

STARTCHAR quoteright
ENCODING 39
SWIDTH 351 0
DWIDTH 12 0
BBX 3 9 5 15
BITMAP
E0
E0
E0
E0
60
40
40
C0
80
ENDCHAR

STARTCHAR parenleft
ENCODING 40
SWIDTH 369 0
DWIDTH 12 0
BBX 9 32 3 -6
BITMAP
0380
0700
0600
0E00
0C00
1C00
1800
1800
3800
3000
3000
7000
6000
6000
6000
6000
E000
E000
C000
C000
C000
C000
C000
C000
C000
C000
C000
C000
E000
E000
E000
6000
ENDCHAR

STARTCHAR parenright
ENCODING 41
SWIDTH 369 0
DWIDTH 12 0
BBX 8 32 -1 -6
BITMAP
06
07
07
07
03
03
03
03
03
03
03
03
03
03
07
07
07
06
06
06
0E
0C
0C
1C
18
18
38
30
70
60
E0
C0
ENDCHAR

STARTCHAR asterisk
ENCODING 42
SWIDTH 425 0
DWIDTH 14 0
BBX 11 12 2 12
BITMAP
0E00
0400
4440
E4E0
75C0
1F00
1F00
75C0
E4E0
4420
0400
0E00
ENDCHAR

STARTCHAR plus
ENCODING 43
SWIDTH 606 0
DWIDTH 20 0
BBX 16 16 2 4
BITMAP
0180
0180
0180
0180
0180
0180
0180
FFFF
FFFF
0180
0180
0180
0180
0180
0180
0180
ENDCHAR

STARTCHAR comma
ENCODING 44
SWIDTH 277 0
DWIDTH 9 0
BBX 6 7 -1 -3
BITMAP
1C
1C
38
30
60
E0
40
ENDCHAR

STARTCHAR minus
ENCODING 45
SWIDTH 606 0
DWIDTH 20 0
BBX 16 2 2 11
BITMAP
FFFF
FFFF
ENDCHAR

STARTCHAR period
ENCODING 46
SWIDTH 277 0
DWIDTH 9 0
BBX 4 4 1 0
BITMAP
60
F0
F0
60
ENDCHAR

STARTCHAR slash
ENCODING 47
SWIDTH 437 0
DWIDTH 14 0
BBX 12 28 1 -4
BITMAP
0030
0030
0070
0060
00E0
00E0
00C0
01C0
01C0
0180
0380
0300
0300
0700
0600
0600
0E00
0C00
1C00
1C00
1800
3800
3800
3000
7000
6000
6000
E000
ENDCHAR

STARTCHAR zero
ENCODING 48
SWIDTH 554 0
DWIDTH 18 0
BBX 15 24 1 0
BITMAP
03F0
07F8
0E1C
1C0C
380E
3006
7006
6006
6006
E006
E006
C006
C00E
C00E
C00E
C00C
C00C
C01C
E018
E038
6070
71E0
3FC0
1F80
ENDCHAR

STARTCHAR one
ENCODING 49
SWIDTH 554 0
DWIDTH 18 0
BBX 6 24 6 0
BITMAP
7C
FC
0C
1C
1C
18
18
18
18
18
18
38
38
30
30
30
30
30
70
70
70
60
60
60
ENDCHAR

STARTCHAR two
ENCODING 50
SWIDTH 554 0
DWIDTH 18 0
BBX 16 24 0 0
BITMAP
01F8
07FC
0F1E
1C07
1C03
1803
1803
3803
0007
0006
000E
001C
0038
0070
00F0
00E0
01C0
0380
0700
0E00
1C00
3800
7FFE
FFFE
ENDCHAR

STARTCHAR three
ENCODING 51
SWIDTH 554 0
DWIDTH 18 0
BBX 16 24 0 0
BITMAP
01F8
07FC
070E
0E07
1C03
0003
0003
0007
000F
001E
01F0
01F8
003C
000E
000E
0006
0006
C006
E00E
E00E
701C
3878
3FF0
0FC0
ENDCHAR

STARTCHAR four
ENCODING 52
SWIDTH 554 0
DWIDTH 18 0
BBX 17 24 -1 0
BITMAP
000200
000200
000600
000E00
000E00
001E00
003600
007400
00EC00
00CC00
018C00
038C00
070C00
0E1C00
0C1800
1C1800
381800
7FFF80
FFDF00
003800
003800
003800
003000
003000
ENDCHAR

STARTCHAR five
ENCODING 53
SWIDTH 554 0
DWIDTH 18 0
BBX 17 24 0 0
BITMAP
01FF80
01FF80
038000
030000
030000
030000
070000
060000
07E000
0FF800
083C00
001C00
000E00
000600
000600
000600
000600
000600
400E00
E00C00
701C00
787800
3FF000
0FC000
ENDCHAR

STARTCHAR six
ENCODING 54
SWIDTH 554 0
DWIDTH 18 0
BBX 15 24 1 0
BITMAP
0020
0070
0060
00E0
01C0
0380
0700
0C00
1FC0
3FF0
3C38
701C
600E
E00E
C006
C006
C006
C006
E00E
E00C
701C
3C78
1FF0
0FC0
ENDCHAR

STARTCHAR seven
ENCODING 55
SWIDTH 554 0
DWIDTH 18 0
BBX 17 24 1 0
BITMAP
3FFF80
3FFF00
000600
000E00
001C00
001800
003800
007000
006000
00E000
01C000
018000
038000
070000
060000
0E0000
0C0000
1C0000
380000
300000
700000
E00000
C00000
400000
ENDCHAR

STARTCHAR eight
ENCODING 56
SWIDTH 554 0
DWIDTH 18 0
BBX 16 24 0 0
BITMAP
01F8
07FC
0F0E
1C07
1C03
1803
1803
1807
1C06
0E1C
03F0
0FF8
1E1C
7806
7007
E003
E003
C003
E007
E006
700E
783C
3FF8
0FE0
ENDCHAR

STARTCHAR nine
ENCODING 57
SWIDTH 554 0
DWIDTH 18 0
BBX 15 24 1 0
BITMAP
0FE0
1FF8
3C3C
701C
600E
E00E
C006
C006
C006
C006
E00E
600C
701C
3878
1FF8
07F0
00E0
01C0
0380
0700
0E00
0C00
1C00
0800
ENDCHAR

STARTCHAR colon
ENCODING 58
SWIDTH 277 0
DWIDTH 9 0
BBX 6 18 1 0
BITMAP
18
3C
3C
18
00
00
00
00
00
00
00
00
00
00
60
F0
F0
60
ENDCHAR

STARTCHAR semicolon
ENCODING 59
SWIDTH 277 0
DWIDTH 9 0
BBX 7 21 0 -3
BITMAP
0C
1E
1E
0C
00
00
00
00
00
00
00
00
00
00
18
38
70
60
E0
C0
80
ENDCHAR

STARTCHAR less
ENCODING 60
SWIDTH 606 0
DWIDTH 20 0
BBX 16 18 2 3
BITMAP
0001
0003
000F
003E
01F8
07E0
1F80
7C00
E000
F000
FC00
1F00
07C0
01F0
007C
001F
0003
0001
ENDCHAR

STARTCHAR equal
ENCODING 61
SWIDTH 606 0
DWIDTH 20 0
BBX 16 9 2 7
BITMAP
FFFF
FFFF
0000
0000
0000
0000
0000
FFFF
FFFF
ENDCHAR

STARTCHAR greater
ENCODING 62
SWIDTH 606 0
DWIDTH 20 0
BBX 16 18 2 3
BITMAP
8000
C000
F000
7C00
1F00
07E0
01F8
003E
0007
000F
003F
00F8
03E0
0F80
7E00
F800
C000
8000
ENDCHAR

STARTCHAR question
ENCODING 63
SWIDTH 591 0
DWIDTH 20 0
BBX 13 25 4 0
BITMAP
0FC0
3FF0
7870
E038
C018
C018
C038
0038
00F0
07E0
1F00
7C00
F000
E060
C060
C0E0
E1C0
7F80
1F00
0000
0000
1800
3C00
3C00
1800
ENDCHAR

STARTCHAR at
ENCODING 64
SWIDTH 867 0
DWIDTH 29 0
BBX 24 25 2 0
BITMAP
00FF80
03C1E0
0E0030
180018
100004
200006
603CC2
40FEC3
41C3C1
C381C1
8301C1
870181
860181
860183
860182
C70386
C70384
438708
61FDB0
20F3C0
300006
18001C
0E0030
03C1E0
00FF80
ENDCHAR

STARTCHAR A
ENCODING 65
SWIDTH 740 0
DWIDTH 24 0
BBX 22 24 0 0
BITMAP
000400
000C00
000E00
001E00
001E00
003B00
003700
007300
00E380
00C380
01C180
0181C0
0381C0
0700C0
07FFE0
0FFFE0
0C0060
1C0070
180070
380030
700038
700038
E00018
C0001C
ENDCHAR

STARTCHAR B
ENCODING 66
SWIDTH 574 0
DWIDTH 19 0
BBX 17 24 0 0
BITMAP
1FF800
1FFE00
1C0E00
180700
180300
180300
180300
180700
380E00
383C00
3FF000
3FFC00
381E00
300700
300380
300180
700180
700180
700180
700380
700780
601F00
7FFE00
FFF800
ENDCHAR

STARTCHAR C
ENCODING 67
SWIDTH 813 0
DWIDTH 27 0
BBX 24 24 1 0
BITMAP
007FE0
01FFF8
07E07E
0F000F
1E0006
380002
380000
700000
600000
E00000
E00000
C00000
C00000
C00000
C00000
E00000
E00000
600000
700000
380008
1C003C
0F81F8
07FFE0
00FF00
ENDCHAR

STARTCHAR D
ENCODING 68
SWIDTH 744 0
DWIDTH 25 0
BBX 21 24 1 0
BITMAP
1FFC00
1FFF00
180FC0
3801E0
3800E0
380070
300030
300038
300038
300018
300018
700018
700018
700018
600038
600038
600030
600070
6000E0
E001E0
E003C0
C01F80
FFFE00
FFF800
ENDCHAR

STARTCHAR E
ENCODING 69
SWIDTH 536 0
DWIDTH 18 0
BBX 16 24 1 0
BITMAP
1FFF
1FFF
1800
3800
3800
3800
3000
3000
3000
3000
3FFE
7FFC
7000
7000
6000
6000
6000
6000
6000
E000
E000
C000
FFF8
FFF8
ENDCHAR

STARTCHAR F
ENCODING 70
SWIDTH 485 0
DWIDTH 16 0
BBX 14 24 1 0
BITMAP
1FFC
1FFC
1800
3800
3800
3800
3000
3000
3000
3000
3FF8
7FF8
7000
6000
6000
6000
6000
6000
E000
E000
E000
C000
C000
C000
ENDCHAR

STARTCHAR G
ENCODING 71
SWIDTH 872 0
DWIDTH 29 0
BBX 25 24 1 0
BITMAP
007FC000
01FFF000
07C07C00
0F001E00
1C000F00
38000700
70000200
70000000
E0000000
E0000000
C0000000
C0000000
C007FF80
C007FF80
C0000380
E0000300
60000700
70000600
30000E00
3C001C00
1E007800
0F81F000
03FFE000
00FF0000
ENDCHAR

STARTCHAR H
ENCODING 72
SWIDTH 683 0
DWIDTH 23 0
BBX 20 24 1 0
BITMAP
180070
180070
180060
380060
380060
380060
300060
3000E0
3000E0
3000E0
3FFFC0
7FFFC0
7000C0
6000C0
6000C0
6001C0
6001C0
600180
E00180
E00180
E00180
C00180
C00380
C00380
ENDCHAR

STARTCHAR I
ENCODING 73
SWIDTH 226 0
DWIDTH 7 0
BBX 5 24 1 0
BITMAP
18
18
38
38
38
38
30
30
30
30
70
70
70
60
60
60
60
E0
E0
E0
E0
C0
C0
C0
ENDCHAR

STARTCHAR J
ENCODING 74
SWIDTH 482 0
DWIDTH 16 0
BBX 13 24 0 0
BITMAP
0018
0018
0018
0038
0038
0038
0030
0030
0030
0030
0030
0070
0070
0070
0060
0060
0060
0060
00E0
00E0
40C0
F1C0
7F80
1F00
ENDCHAR

STARTCHAR K
ENCODING 75
SWIDTH 591 0
DWIDTH 20 0
BBX 19 24 1 0
BITMAP
1801E0
180780
180F00
381E00
383800
387000
30E000
31C000
378000
370000
3E0000
7C0000
760000
670000
638000
638000
61C000
60E000
E07000
E03800
E01C00
C00E00
C00700
C00780
ENDCHAR

STARTCHAR L
ENCODING 76
SWIDTH 462 0
DWIDTH 15 0
BBX 13 24 1 0
BITMAP
1800
1800
1800
1800
3800
3800
3800
3000
3000
3000
3000
3000
7000
7000
7000
6000
6000
6000
6000
E000
E000
E000
FFF8
FFF8
ENDCHAR

STARTCHAR M
ENCODING 77
SWIDTH 919 0
DWIDTH 30 0
BBX 26 24 0 0
BITMAP
02000040
02000040
030000C0
070000C0
070001C0
078003C0
078003C0
0EC00740
0DC006C0
0CC00EC0
1CE01CC0
1C6018C0
186038C0
187070C0
383060C0
3030E0C0
3038C0C0
7019C0C0
701B80C0
601F00C0
600F00C0
E00E00C0
C00400C0
C00400C0
ENDCHAR

STARTCHAR N
ENCODING 78
SWIDTH 740 0
DWIDTH 24 0
BBX 22 24 1 0
BITMAP
10001C
18001C
180018
1C0018
3E0018
3E0018
3B0018
338038
31C038
30C030
30E030
707030
703830
703830
601C70
600E70
600670
600760
6003E0
E001E0
E000E0
C000E0
C00060
C00020
ENDCHAR

STARTCHAR O
ENCODING 79
SWIDTH 869 0
DWIDTH 29 0
BBX 25 24 1 0
BITMAP
007FC000
01FFF000
07E07C00
0F001E00
1E000E00
38000700
38000300
70000380
60000180
E0000180
E0000180
C0000180
C0000180
C0000380
C0000380
E0000300
E0000700
60000E00
70000E00
38003C00
3C007800
1F03F000
07FFC000
01FE0000
ENDCHAR

STARTCHAR P
ENCODING 80
SWIDTH 592 0
DWIDTH 20 0
BBX 17 24 1 0
BITMAP
1FFC00
1FFF00
180780
180380
380180
380180
380180
300380
300300
300F00
3FFE00
3FF800
700000
700000
600000
600000
600000
600000
600000
E00000
E00000
E00000
C00000
C00000
ENDCHAR

STARTCHAR Q
ENCODING 81
SWIDTH 871 0
DWIDTH 29 0
BBX 25 24 1 0
BITMAP
007FC000
01FFF000
07E07C00
0F001E00
1E000E00
38000700
38000300
70000380
60000180
E0000180
E0000180
C0000180
C0000180
C0000380
C0000380
E0000300
E003C700
6001EE00
7000EE00
38003C00
3C007800
1F03FC00
07FFCE00
01FF0780
ENDCHAR

STARTCHAR R
ENCODING 82
SWIDTH 607 0
DWIDTH 20 0
BBX 17 24 1 0
BITMAP
0FFC00
1FFF00
1C0700
1C0380
180180
180180
180180
180380
380700
380F00
3FFE00
3FF800
338000
31C000
30C000
30E000
707000
707000
703800
601800
601C00
600E00
600600
E00700
ENDCHAR

STARTCHAR S
ENCODING 83
SWIDTH 498 0
DWIDTH 16 0
BBX 15 24 0 0
BITMAP
01F0
07F8
073C
0E0C
0C0E
0C00
0C00
0E00
0600
0700
0380
01C0
00E0
0070
0038
0038
0018
0018
E018
6038
7030
38F0
1FE0
0F80
ENDCHAR

STARTCHAR T
ENCODING 84
SWIDTH 426 0
DWIDTH 14 0
BBX 14 24 1 0
BITMAP
FFFC
FFFC
0300
0700
0700
0700
0600
0600
0600
0600
0600
0E00
0E00
0E00
0C00
0C00
0C00
0C00
1C00
1C00
1C00
1C00
1800
1800
ENDCHAR

STARTCHAR U
ENCODING 85
SWIDTH 655 0
DWIDTH 22 0
BBX 18 24 2 0
BITMAP
3000C0
3000C0
3000C0
3001C0
7001C0
7001C0
700180
600180
600180
600180
600180
E00380
E00380
E00300
C00300
C00300
C00300
C00700
C00600
E00E00
E01C00
787C00
3FF800
0FE000
ENDCHAR

STARTCHAR V
ENCODING 86
SWIDTH 702 0
DWIDTH 23 0
BBX 22 24 2 0
BITMAP
E0001C
E00038
600038
600070
700060
3000E0
3000C0
3801C0
180380
180300
1C0700
0C0600
0C0E00
0E1C00
061800
063800
073000
077000
03E000
03E000
03C000
018000
018000
010000
ENDCHAR

STARTCHAR W
ENCODING 87
SWIDTH 960 0
DWIDTH 32 0
BBX 30 24 2 0
BITMAP
C001000C
E003001C
E0030018
60070038
600F0030
600F8070
701D8060
701D80E0
303980C0
303181C0
3071C180
3060C380
38E0C300
18C0C700
19C0E600
19806E00
1B806C00
1D007C00
1F007800
0E007800
0E003800
0C003000
0C003000
08002000
ENDCHAR

STARTCHAR X
ENCODING 88
SWIDTH 609 0
DWIDTH 20 0
BBX 21 24 -1 0
BITMAP
060038
070070
0300E0
0380C0
0181C0
01C380
01C700
00C600
00EE00
007C00
007800
003000
007800
00F800
01DC00
018C00
038E00
070E00
0E0600
0C0700
1C0300
380380
700180
E001C0
ENDCHAR

STARTCHAR Y
ENCODING 89
SWIDTH 592 0
DWIDTH 20 0
BBX 19 24 1 0
BITMAP
E000E0
6001C0
700180
300380
380700
180E00
1C1C00
0C1C00
0E3800
067000
076000
03C000
01C000
038000
038000
038000
030000
030000
030000
030000
030000
070000
070000
060000
ENDCHAR

STARTCHAR Z
ENCODING 90
SWIDTH 480 0
DWIDTH 16 0
BBX 16 24 0 0
BITMAP
1FFF
1FFE
000C
001C
0018
0038
0030
0070
0060
00E0
01C0
01C0
0380
0300
0700
0600
0E00
0C00
1C00
1800
3800
3000
7FF8
FFF8
ENDCHAR

STARTCHAR bracketleft
ENCODING 91
SWIDTH 351 0
DWIDTH 12 0
BBX 9 30 2 -6
BITMAP
0F80
0F80
0C00
1C00
1C00
1800
1800
1800
1800
1800
3800
3800
3000
3000
3000
3000
3000
7000
7000
6000
6000
6000
6000
6000
E000
E000
C000
C000
F800
F800
ENDCHAR

STARTCHAR backslash
ENCODING 92
SWIDTH 605 0
DWIDTH 20 0
BBX 18 28 1 -4
BITMAP
E00000
600000
700000
300000
380000
1C0000
0C0000
0E0000
060000
070000
030000
038000
018000
01C000
00E000
006000
007000
003000
003800
001800
001C00
000C00
000E00
000700
000300
000380
000180
0001C0
ENDCHAR

STARTCHAR bracketright
ENCODING 93
SWIDTH 351 0
DWIDTH 12 0
BBX 10 30 -2 -6
BITMAP
07C0
0FC0
00C0
01C0
01C0
0180
0180
0180
0180
0180
0380
0380
0300
0300
0300
0300
0300
0700
0700
0600
0600
0600
0600
0600
0E00
0E00
0C00
0C00
7C00
FC00
ENDCHAR

STARTCHAR asciicircum
ENCODING 94
SWIDTH 672 0
DWIDTH 22 0
BBX 18 18 2 6
BITMAP
00C000
00E000
01E000
01B000
033000
033800
061800
061800
0C0C00
0C0C00
180600
180600
380300
300300
300180
600180
6001C0
C000C0
ENDCHAR

STARTCHAR underscore
ENCODING 95
SWIDTH 500 0
DWIDTH 17 0
BBX 17 2 0 -4
BITMAP
FFFF80
FFFF80
ENDCHAR

STARTCHAR quoteleft
ENCODING 96
SWIDTH 351 0
DWIDTH 12 0
BBX 3 9 5 15
BITMAP
20
60
40
40
C0
E0
E0
E0
E0
ENDCHAR

STARTCHAR a
ENCODING 97
SWIDTH 683 0
DWIDTH 23 0
BBX 19 18 1 0
BITMAP
01F860
07FE60
1E0760
3803A0
3001E0
6000E0
E000C0
E000C0
C000C0
C000C0
C000C0
C001C0
E001C0
6003C0
700780
3C1D80
1FF980
07E180
ENDCHAR

STARTCHAR b
ENCODING 98
SWIDTH 682 0
DWIDTH 23 0
BBX 19 24 1 0
BITMAP
180000
180000
180000
380000
380000
300000
30FC00
33FF00
3F0780
3C01C0
3800C0
7000E0
700060
600060
600060
600060
600060
6000E0
E000C0
F001C0
D80380
DE0F00
CFFE00
C3F800
ENDCHAR

STARTCHAR c
ENCODING 99
SWIDTH 647 0
DWIDTH 21 0
BBX 18 18 1 0
BITMAP
01FC00
07FF00
1F0780
3C01C0
300080
600000
E00000
E00000
C00000
C00000
C00000
C00000
E00000
600100
700380
3C1F00
1FFE00
07F800
ENDCHAR

STARTCHAR d
ENCODING 100
SWIDTH 685 0
DWIDTH 23 0
BBX 20 24 1 0
BITMAP
000030
000030
000030
000070
000070
000060
01F860
07FE60
1E0760
380360
3001E0
6000E0
E000E0
E000C0
C000C0
C000C0
C000C0
C001C0
E001C0
6003C0
700780
3C1D80
1FF980
07E180
ENDCHAR

STARTCHAR e
ENCODING 101
SWIDTH 650 0
DWIDTH 21 0
BBX 18 18 1 0
BITMAP
03F800
0FFE00
1E0700
380380
7001C0
6000C0
E000C0
FFFFC0
FFFFC0
C00000
C00000
C00000
E00000
600200
700700
3C1E00
1FFC00
07F000
ENDCHAR

STARTCHAR f
ENCODING 102
SWIDTH 314 0
DWIDTH 10 0
BBX 10 25 1 0
BITMAP
0780
0FC0
0C40
1C00
1800
1800
1800
7F80
FF00
3800
3800
3000
3000
3000
3000
3000
7000
7000
6000
6000
6000
6000
6000
E000
E000
ENDCHAR

STARTCHAR g
ENCODING 103
SWIDTH 673 0
DWIDTH 22 0
BBX 20 24 0 -6
BITMAP
01FC30
07FF30
0F07B0
1C01F0
3800F0
3800E0
700060
700060
600060
600060
600060
6000E0
7000C0
3001C0
3803C0
1E0EC0
0FFCC0
03F1C0
000180
E00180
700380
380F00
1FFC00
07F000
ENDCHAR

STARTCHAR h
ENCODING 104
SWIDTH 610 0
DWIDTH 20 0
BBX 16 24 1 0
BITMAP
1800
1800
1800
3800
3800
3000
30F8
33FC
3E0E
3C07
7803
7003
7003
6003
6003
6003
6007
6007
E006
E006
C006
C006
C006
C00E
ENDCHAR

STARTCHAR i
ENCODING 105
SWIDTH 200 0
DWIDTH 7 0
BBX 6 25 0 0
BITMAP
18
3C
3C
18
00
00
00
30
30
30
30
30
70
70
60
60
60
60
60
60
E0
C0
C0
C0
C0
ENDCHAR

STARTCHAR j
ENCODING 106
SWIDTH 203 0
DWIDTH 7 0
BBX 10 31 -3 -6
BITMAP
0180
03C0
03C0
0180
0000
0000
0000
0300
0300
0300
0300
0300
0700
0700
0600
0600
0600
0600
0600
0E00
0E00
0C00
0C00
0C00
0C00
0C00
1C00
1C00
1800
F800
F000
ENDCHAR

STARTCHAR k
ENCODING 107
SWIDTH 502 0
DWIDTH 17 0
BBX 15 24 1 0
BITMAP
1800
1800
1800
1800
3800
3000
301E
303C
3070
31E0
33C0
7700
6E00
7800
7C00
6E00
6E00
6700
E380
C1C0
C0E0
C070
C038
C01C
ENDCHAR

STARTCHAR l
ENCODING 108
SWIDTH 200 0
DWIDTH 7 0
BBX 6 24 0 0
BITMAP
1C
1C
18
18
18
18
18
18
38
30
30
30
30
30
30
70
70
60
60
60
60
60
E0
E0
ENDCHAR

STARTCHAR m
ENCODING 109
SWIDTH 938 0
DWIDTH 31 0
BBX 27 18 1 0
BITMAP
31F01F00
37FC7FC0
361EE1C0
3C06C0E0
38078060
70070060
70070060
60060060
60060060
60060060
600E00E0
600E00C0
E00E00C0
E00C00C0
C00C00C0
C00C00C0
C00C00C0
C00C01C0
ENDCHAR

STARTCHAR n
ENCODING 110
SWIDTH 610 0
DWIDTH 20 0
BBX 16 18 1 0
BITMAP
31F8
33FC
3E0E
3C07
3803
7003
7003
6003
6003
6003
6007
6007
E006
E006
C006
C006
C006
C00E
ENDCHAR

STARTCHAR o
ENCODING 111
SWIDTH 655 0
DWIDTH 22 0
BBX 18 18 1 0
BITMAP
03F800
0FFE00
1E0F00
380380
300180
6001C0
6000C0
C000C0
C000C0
C000C0
C000C0
C001C0
E00180
600380
700700
3C1E00
1FFC00
07E000
ENDCHAR

STARTCHAR p
ENCODING 112
SWIDTH 682 0
DWIDTH 23 0
BBX 20 24 0 -6
BITMAP
187E00
19FF80
1F83C0
1E00E0
3C0060
380070
380030
300030
300030
300030
300030
700060
700060
7800C0
6C01C0
6F0780
67FE00
61F800
600000
E00000
E00000
E00000
C00000
C00000
ENDCHAR

STARTCHAR q
ENCODING 113
SWIDTH 682 0
DWIDTH 23 0
BBX 19 24 1 -6
BITMAP
03F860
0FFE60
1E0760
3803A0
7001E0
6000E0
E000C0
E000C0
C000C0
C000C0
C000C0
C001C0
E001C0
6003C0
700780
3C1D80
1FF980
07E180
000180
000380
000380
000300
000300
000300
ENDCHAR

STARTCHAR r
ENCODING 114
SWIDTH 301 0
DWIDTH 10 0
BBX 11 18 0 0
BITMAP
33E0
37C0
3600
3800
3800
7000
7000
7000
6000
6000
6000
6000
E000
E000
C000
C000
C000
C000
ENDCHAR

STARTCHAR s
ENCODING 115
SWIDTH 388 0
DWIDTH 13 0
BBX 12 18 -1 0
BITMAP
07C0
1FE0
3870
3020
3000
3800
1800
1E00
0780
03C0
01E0
00E0
0060
0060
C0E0
F1C0
7FC0
1F00
ENDCHAR

STARTCHAR t
ENCODING 116
SWIDTH 339 0
DWIDTH 11 0
BBX 9 24 2 0
BITMAP
0C00
0C00
1C00
1C00
1800
1800
FF80
FF80
1800
3800
3800
3000
3000
3000
3000
3000
3000
7000
7000
6000
6000
6000
6000
6000
ENDCHAR

STARTCHAR u
ENCODING 117
SWIDTH 608 0
DWIDTH 20 0
BBX 16 18 2 0
BITMAP
7003
6003
6003
6003
6007
6007
E006
E006
C006
C006
C006
C00E
C00C
E00C
601C
7878
3FF0
0FC0
ENDCHAR

STARTCHAR v
ENCODING 118
SWIDTH 554 0
DWIDTH 18 0
BBX 16 18 1 0
BITMAP
C003
E007
6006
600E
700C
3018
3038
3830
1870
1860
1CE0
0CC0
0D80
0F80
0700
0700
0200
0200
ENDCHAR

STARTCHAR w
ENCODING 119
SWIDTH 831 0
DWIDTH 27 0
BBX 26 18 1 0
BITMAP
E00801C0
60080180
601C0380
601C0300
703C0700
30360600
30760E00
38660C00
18E71C00
18C31800
19C33800
1D83B000
0D81A000
0F01E000
0E01C000
0600C000
04008000
04008000
ENDCHAR

STARTCHAR x
ENCODING 120
SWIDTH 480 0
DWIDTH 16 0
BBX 15 18 0 0
BITMAP
600E
701C
3818
1838
1C70
0CE0
0EE0
07C0
0380
0380
07C0
0EC0
1CE0
1860
3870
7038
E018
C01C
ENDCHAR

STARTCHAR y
ENCODING 121
SWIDTH 536 0
DWIDTH 18 0
BBX 17 24 1 -6
BITMAP
C00380
E00700
600600
600E00
700C00
301C00
303800
383000
187000
186000
1CE000
0DC000
0E8000
078000
070000
070000
060000
0C0000
1C0000
180000
380000
300000
700000
E00000
ENDCHAR

STARTCHAR z
ENCODING 122
SWIDTH 425 0
DWIDTH 14 0
BBX 15 18 -1 0
BITMAP
3FFE
3FFC
0038
0030
0070
00E0
00C0
01C0
0380
0300
0700
0E00
0C00
1C00
3800
3000
7FFC
FFF8
ENDCHAR

STARTCHAR braceleft
ENCODING 123
SWIDTH 351 0
DWIDTH 12 0
BBX 12 31 0 -7
BITMAP
00F0
01F0
0380
0380
0700
0700
0700
0700
0700
0600
0E00
0E00
0C00
3C00
6800
7000
F800
1C00
1C00
1C00
1C00
1C00
1C00
1800
3800
3800
3800
3800
3F00
1F00
0600
ENDCHAR

STARTCHAR bar
ENCODING 124
SWIDTH 672 0
DWIDTH 22 0
BBX 2 30 10 -6
BITMAP
C0
C0
C0
C0
C0
C0
C0
C0
C0
C0
C0
C0
C0
C0
C0
C0
C0
C0
C0
C0
C0
C0
C0
C0
C0
C0
C0
C0
C0
C0
ENDCHAR

STARTCHAR braceright
ENCODING 125
SWIDTH 351 0
DWIDTH 12 0
BBX 12 31 -3 -7
BITMAP
0700
0F80
0FC0
01C0
01C0
01C0
01C0
01C0
0380
0380
0380
0380
0380
01C0
01F0
0060
01E0
0380
0300
0700
0700
0600
0E00
0E00
0E00
0E00
0E00
1C00
3C00
F800
F000
ENDCHAR

STARTCHAR asciitilde
ENCODING 126
SWIDTH 606 0
DWIDTH 20 0
BBX 16 5 2 9
BITMAP
7E00
FF81
E7E7
81FF
007E
ENDCHAR

STARTCHAR space
ENCODING 160
SWIDTH 277 0
DWIDTH 11 0
BBX 0 0 0 0
BITMAP
ENDCHAR

STARTCHAR Aogonek
ENCODING 161
SWIDTH 740 0
DWIDTH 24 0
BBX 23 30 -1 -6
BITMAP
000200
000600
000E00
000E00
001F00
001B00
003B00
003380
007180
00E180
00C1C0
01C0C0
0180C0
0380E0
07FFE0
07FFF0
0E0070
0C0030
1C0038
180038
380018
70001C
70001C
E00004
000008
000018
000030
000030
000038
00001E
ENDCHAR

STARTCHAR afii240
ENCODING 162
SWIDTH 500 0
DWIDTH 17 0
BBX 17 17 1 0
BITMAP
0E0780
1C0F00
1C1E00
1C3800
1C7000
1CE000
39C000
3FC000
3EE000
3CE000
787000
707000
707800
703800
703800
E01C00
E01C00
ENDCHAR

STARTCHAR Rcommaaccent
ENCODING 163
SWIDTH 607 0
DWIDTH 20 0
BBX 17 31 1 -7
BITMAP
0FFC00
1FFF00
1C0700
1C0380
180180
180180
180180
180380
380700
380F00
3FFE00
3FF800
338000
31C000
30C000
30E000
707000
707000
703800
601800
601C00
600E00
600600
E00700
000000
000000
070000
070000
020000
060000
020000
ENDCHAR

STARTCHAR currency
ENCODING 164
SWIDTH 554 0
DWIDTH 18 0
BBX 16 16 1 4
BITMAP
C7E2
EFFB
3C3C
700E
6006
E007
C003
C003
C003
C003
E007
6006
300C
7C3E
EFFB
47E2
ENDCHAR

STARTCHAR Itilde
ENCODING 165
SWIDTH 226 0
DWIDTH 7 0
BBX 11 29 0 0
BITMAP
7C20
FFE0
87C0
0000
0000
0C00
0C00
1C00
1C00
1C00
1C00
1800
1800
1800
1800
3800
3800
3800
3000
3000
3000
3000
7000
7000
7000
7000
6000
6000
6000
ENDCHAR

STARTCHAR Lcommaaccent
ENCODING 166
SWIDTH 462 0
DWIDTH 15 0
BBX 13 31 1 -7
BITMAP
1800
1800
1800
1800
3800
3800
3800
3000
3000
3000
3000
3000
7000
7000
7000
6000
6000
6000
6000
E000
E000
E000
FFF8
FFF8
0000
0000
0E00
0C00
0C00
0400
0C00
ENDCHAR

STARTCHAR section
ENCODING 167
SWIDTH 615 0
DWIDTH 20 0
BBX 16 31 1 -6
BITMAP
01F8
03FE
070E
0E07
0C03
0C00
0C00
0E00
0700
03C0
0FE0
1C78
303C
701E
600E
7006
7006
380E
1E3C
0FF8
07C0
01C0
00E0
0070
0030
0030
C030
C070
F0E0
7FC0
1F80
ENDCHAR

STARTCHAR hungarumlaut
ENCODING 168
SWIDTH 552 0
DWIDTH 18 0
BBX 13 5 5 21
BITMAP
0F78
1CE0
39C0
3180
E700
ENDCHAR

STARTCHAR Scaron
ENCODING 169
SWIDTH 498 0
DWIDTH 16 0
BBX 16 29 0 0
BITMAP
0F1F
03B8
01F0
00E0
0000
01F0
07F8
073C
0E0C
0C0E
0C00
0C00
0E00
0600
0700
0380
01C0
00E0
0070
0038
0038
0018
0018
E018
6038
7030
38F0
1FE0
0F80
ENDCHAR

STARTCHAR Emacron
ENCODING 170
SWIDTH 536 0
DWIDTH 18 0
BBX 16 29 1 0
BITMAP
0FFE
0FFE
0000
0000
0000
1FFF
1FFF
1800
3800
3800
3800
3000
3000
3000
3000
3FFE
7FFC
7000
7000
6000
6000
6000
6000
6000
E000
E000
C000
FFF8
FFF8
ENDCHAR

STARTCHAR Gcommaaccent
ENCODING 171
SWIDTH 872 0
DWIDTH 29 0
BBX 25 31 1 -7
BITMAP
007FC000
01FFF000
07C0F800
0F001E00
1C000F00
38000700
70000200
70000000
E0000000
E0000000
C0000000
C0000000
C007FF80
C007FF80
C0000300
E0000700
60000700
70000E00
30000E00
3C001C00
1E007800
0F83F000
03FFE000
00FF8000
00000000
00000000
00380000
00380000
00100000
00300000
00100000
ENDCHAR

STARTCHAR afii237
ENCODING 172
SWIDTH 614 0
DWIDTH 20 0
BBX 19 24 4 0
BITMAP
7FFFE0
FFFFE0
FFFFE0
00E000
00E000
01E000
01C000
01C000
01C000
01C000
03C000
038000
FFFE00
FFFE00
038000
070000
070000
070000
070000
0F0000
0E0000
0E0000
0E0000
0E0000
ENDCHAR

STARTCHAR hyphen
ENCODING 173
SWIDTH 332 0
DWIDTH 11 0
BBX 9 2 0 8
BITMAP
FF80
FF80
ENDCHAR

STARTCHAR Zcaron
ENCODING 174
SWIDTH 480 0
DWIDTH 16 0
BBX 16 30 0 0
BITMAP
0F0F
039C
01F8
00F0
0000
0000
1FFF
1FFE
000C
001C
0018
0038
0030
0070
0060
00E0
01C0
01C0
0380
0300
0700
0600
0E00
0C00
1C00
1800
3800
3000
7FF8
FFF8
ENDCHAR

STARTCHAR macron
ENCODING 175
SWIDTH 485 0
DWIDTH 16 0
BBX 11 2 4 22
BITMAP
FFE0
FFE0
ENDCHAR

STARTCHAR degree
ENCODING 176
SWIDTH 400 0
DWIDTH 13 0
BBX 11 11 2 13
BITMAP
1F00
3F80
60C0
E060
C060
C060
C060
E0E0
71C0
3F80
0F00
ENDCHAR

STARTCHAR aogonek
ENCODING 177
SWIDTH 683 0
DWIDTH 23 0
BBX 20 24 1 -6
BITMAP
01F870
07FE60
1E0760
3803A0
3001E0
6000E0
E000E0
E000E0
C000E0
C000C0
C000C0
C000C0
E001C0
6003C0
7007C0
3C1EC0
1FF980
07E080
000300
000200
000600
000600
000700
0003C0
ENDCHAR

STARTCHAR ogonek
ENCODING 178
SWIDTH 302 0
DWIDTH 10 0
BBX 5 6 2 -6
BITMAP
30
60
C0
C0
E0
78
ENDCHAR

STARTCHAR rcommaaccent
ENCODING 179
SWIDTH 301 0
DWIDTH 10 0
BBX 11 25 0 -7
BITMAP
33E0
37C0
3600
3800
3800
7000
7000
7000
6000
6000
6000
6000
E000
E000
C000
C000
C000
C000
0000
0000
3000
7000
1000
2000
2000
ENDCHAR

STARTCHAR acute
ENCODING 180
SWIDTH 375 0
DWIDTH 12 0
BBX 8 5 5 21
BITMAP
0F
1C
38
30
E0
ENDCHAR

STARTCHAR itilde
ENCODING 181
SWIDTH 200 0
DWIDTH 7 0
BBX 12 25 -2 0
BITMAP
3C20
FFF0
43E0
0000
0000
0000
0000
0600
0E00
0E00
0C00
0C00
0C00
0C00
0C00
1C00
1C00
1800
1800
1800
1800
1800
1800
3800
3000
ENDCHAR

STARTCHAR lcommaaccent
ENCODING 182
SWIDTH 200 0
DWIDTH 7 0
BBX 6 31 0 -7
BITMAP
1C
1C
18
18
18
18
18
18
38
30
30
30
30
30
30
70
60
60
60
60
60
60
E0
C0
00
00
E0
C0
40
C0
40
ENDCHAR

STARTCHAR caron
ENCODING 183
SWIDTH 502 0
DWIDTH 17 0
BBX 12 4 4 21
BITMAP
F0F0
39C0
1D80
0E00
ENDCHAR

STARTCHAR commaaccent
ENCODING 184
SWIDTH 333 0
DWIDTH 11 0
BBX 3 5 4 -7
BITMAP
E0
E0
20
40
40
ENDCHAR

STARTCHAR scaron
ENCODING 185
SWIDTH 388 0
DWIDTH 13 0
BBX 14 25 -1 0
BITMAP
383C
1CF0
0FC0
0780
0000
0000
0000
07C0
1FE0
3870
3020
3000
3800
1800
1E00
0780
03C0
00C0
00E0
0060
0060
C0E0
F1C0
7FC0
1F00
ENDCHAR

STARTCHAR emacron
ENCODING 186
SWIDTH 650 0
DWIDTH 21 0
BBX 18 24 1 0
BITMAP
07FF00
07FF00
000000
000000
000000
000000
03F800
0FFE00
1E0700
380380
7001C0
6000C0
E000C0
FFFFC0
FFFFC0
C00000
C00000
C00000
E00000
600200
700700
3C1E00
1FFC00
07F000
ENDCHAR

STARTCHAR gcommaaccent
ENCODING 187
SWIDTH 673 0
DWIDTH 22 0
BBX 20 32 0 -6
BITMAP
000C00
000800
000800
001C00
001C00
000000
000000
000000
01FC30
07FE30
0F07B0
1C01F0
1800F0
3800E0
700060
700060
600060
600060
600060
6000E0
7000C0
3001C0
3803C0
1E0EC0
0FFCC0
03F1C0
000180
E00180
700380
380F00
1FFC00
07F000
ENDCHAR

STARTCHAR afii253
ENCODING 188
SWIDTH 280 0
DWIDTH 9 0
BBX 10 23 1 0
BITMAP
0100
0700
0700
0E00
0E00
0E00
7FC0
6F80
1C00
1C00
1C00
1C00
1800
FF80
FF00
3800
3800
3000
7000
7000
7000
7E00
3E00
ENDCHAR

STARTCHAR afii238
ENCODING 189
SWIDTH 723 0
DWIDTH 24 0
BBX 22 24 1 0
BITMAP
070F80
073FE0
0F7FF0
0FE078
0F8038
0F003C
0F001C
1E001C
1E001C
1C001C
1C001C
1C001C
3C003C
38003C
380038
380038
380078
780070
700070
7000F0
7001E0
707FC0
F0FF80
E03E00
ENDCHAR

STARTCHAR zcaron
ENCODING 190
SWIDTH 425 0
DWIDTH 14 0
BBX 15 25 -1 0
BITMAP
1E1E
0778
03E0
01C0
0000
0000
0000
3FFE
3FFC
0038
0030
0070
00E0
00C0
01C0
0380
0300
0700
0E00
0C00
1C00
3800
3000
7FFC
FFF8
ENDCHAR

STARTCHAR afii254
ENCODING 191
SWIDTH 556 0
DWIDTH 18 0
BBX 16 24 2 -6
BITMAP
1C7C
1DFE
1B8F
1E07
3C07
3C07
3807
3806
700E
700E
700E
700E
700C
E01C
E01C
E01C
E01C
E018
0038
0038
0038
03F0
03F0
03C0
ENDCHAR

STARTCHAR Amacron
ENCODING 192
SWIDTH 740 0
DWIDTH 24 0
BBX 22 29 0 0
BITMAP
00FFE0
00FFE0
000000
000000
000000
000400
000C00
000E00
001E00
001E00
003B00
007700
007300
00E380
00C380
01C180
0181C0
0381C0
0700C0
07FFE0
0FFFE0
0C0060
1C0070
180070
380030
700038
700038
E00018
C0001C
ENDCHAR

STARTCHAR Aacute
ENCODING 193
SWIDTH 740 0
DWIDTH 24 0
BBX 22 31 0 0
BITMAP
0001E0
0003C0
000380
000600
001C00
000000
000000
000400
000C00
000E00
001E00
001E00
003B00
003700
007300
00E380
00C380
01C180
0181C0
0381C0
0700C0
07FFE0
0FFFE0
0C0060
1C0070
180070
380030
700038
700038
E00018
C0001C
ENDCHAR

STARTCHAR Acircumflex
ENCODING 194
SWIDTH 740 0
DWIDTH 24 0
BBX 22 30 0 0
BITMAP
000600
001F00
003B80
00F1E0
000000
000000
000400
000C00
000E00
001E00
001E00
003B00
003700
007300
00E380
00C380
01C180
0181C0
0381C0
0700C0
07FFE0
0FFFE0
0C0060
1C0070
180070
380030
700038
700038
E00018
C0001C
ENDCHAR

STARTCHAR Atilde
ENCODING 195
SWIDTH 740 0
DWIDTH 24 0
BBX 22 29 0 0
BITMAP
007C60
00FFE0
0087C0
000000
000000
000400
000C00
000E00
001E00
001E00
003B00
003700
007300
00E380
00C380
01C180
0181C0
0381C0
0700C0
07FFE0
0FFFE0
0C0060
1C0070
180070
380030
700038
700038
E00018
C0001C
ENDCHAR

STARTCHAR Adieresis
ENCODING 196
SWIDTH 740 0
DWIDTH 24 0
BBX 23 29 -1 0
BITMAP
003060
0078F0
0078F0
003060
000000
000200
000600
000600
000F00
000F00
001D80
003B80
003180
0071C0
0061C0
00E0C0
01C0E0
0180E0
038060
03FFF0
07FFF0
0E0030
0E0038
1C0018
180018
38001C
30000C
70000C
E0000E
ENDCHAR

STARTCHAR Aring
ENCODING 197
SWIDTH 740 0
DWIDTH 24 0
BBX 22 32 0 0
BITMAP
001F00
001180
002080
002080
002080
001180
000E00
000000
000400
000600
000E00
000E00
001F00
003B00
003B00
007380
006180
00E180
01C1C0
01C0C0
0380C0
0300E0
07FFE0
07FFE0
0E0070
1C0030
180030
380038
300018
70001C
E0001C
E0000C
ENDCHAR

STARTCHAR AE
ENCODING 198
SWIDTH 992 0
DWIDTH 33 0
BBX 31 24 0 0
BITMAP
0000FFFE
0001BFFE
0001F000
00037000
00077000
00067000
000C6000
001C6000
00386000
00306000
0070FFFC
00E0FFF8
00C0E000
0180C000
03FFC000
03FFC000
0600C000
0E00C000
1C01C000
1801C000
3801C000
70018000
6001FFF0
E001FFF0
ENDCHAR

STARTCHAR Iogonek
ENCODING 199
SWIDTH 226 0
DWIDTH 7 0
BBX 7 30 -1 -6
BITMAP
06
06
06
06
0E
0E
0E
0C
0C
0C
0C
0C
1C
1C
1C
18
18
18
18
38
38
38
30
30
20
60
C0
C0
E0
78
ENDCHAR

STARTCHAR Ccaron
ENCODING 200
SWIDTH 813 0
DWIDTH 27 0
BBX 24 29 1 0
BITMAP
007878
001DC0
000F80
000700
000000
007FE0
01FFF8
07E07E
0F000F
1E0006
380002
380000
700000
600000
E00000
E00000
C00000
C00000
C00000
C00000
E00000
E00000
600000
700000
380008
1C003C
0F81F8
07FFE0
00FF00
ENDCHAR

STARTCHAR Eacute
ENCODING 201
SWIDTH 536 0
DWIDTH 18 0
BBX 16 31 1 0
BITMAP
001E
003C
0038
0060
01C0
0000
0000
1FFF
1FFF
1800
3800
3800
3800
3000
3000
3000
3000
3FFE
7FFC
7000
7000
6000
6000
6000
6000
6000
E000
E000
C000
FFF8
FFF8
ENDCHAR

STARTCHAR Eogonek
ENCODING 202
SWIDTH 536 0
DWIDTH 18 0
BBX 17 30 0 -6
BITMAP
1FFF80
1FFF00
1C0000
180000
180000
180000
180000
180000
380000
380000
3FFE00
3FFE00
300000
300000
300000
700000
700000
700000
600000
600000
600000
600000
7FFC00
FFFC00
003000
006000
00C000
00C000
00E000
007800
ENDCHAR

STARTCHAR Edieresis
ENCODING 203
SWIDTH 536 0
DWIDTH 18 0
BBX 17 30 0 0
BITMAP
030600
078F00
078F00
030600
000000
000000
1FFF80
1FFF80
180000
180000
180000
180000
380000
380000
380000
300000
3FFE00
3FFE00
300000
300000
700000
700000
700000
600000
600000
600000
600000
E00000
FFFC00
FFFC00
ENDCHAR

STARTCHAR Edotaccent
ENCODING 204
SWIDTH 536 0
DWIDTH 18 0
BBX 17 30 0 0
BITMAP
006000
00F000
00F000
006000
000000
000000
0FFF80
1FFF00
1C0000
1C0000
180000
180000
180000
180000
380000
380000
3FFE00
3FFE00
300000
300000
300000
300000
700000
700000
700000
600000
600000
600000
7FFC00
FFFC00
ENDCHAR

STARTCHAR Iacute
ENCODING 205
SWIDTH 226 0
DWIDTH 7 0
BBX 10 31 1 0
BITMAP
03C0
0700
0E00
0C00
3800
0000
0000
1800
1800
3800
3800
3800
3800
3000
3000
3000
3000
7000
7000
7000
6000
6000
6000
6000
E000
E000
E000
E000
C000
C000
C000
ENDCHAR

STARTCHAR Icircumflex
ENCODING 206
SWIDTH 226 0
DWIDTH 7 0
BBX 12 30 -1 0
BITMAP
0700
0F80
1DC0
F8F0
0000
0000
0600
0600
0E00
0E00
0E00
0C00
0C00
0C00
0C00
0C00
1C00
1C00
1C00
1800
1800
1800
1800
3800
3800
3800
3000
3000
3000
3000
ENDCHAR

STARTCHAR Imacron
ENCODING 207
SWIDTH 226 0
DWIDTH 7 0
BBX 11 29 0 0
BITMAP
FFE0
FFE0
0000
0000
0000
0C00
0C00
0C00
1C00
1C00
1C00
1800
1800
1800
1800
3800
3800
3800
3000
3000
3000
3000
3000
7000
7000
7000
6000
6000
6000
ENDCHAR

STARTCHAR Eth
ENCODING 208
SWIDTH 790 0
DWIDTH 26 0
BBX 23 24 0 0
BITMAP
07FF00
07FFC0
0603E0
0E0070
0E0038
0E001C
0C000C
0C000E
0C0006
0C0006
0C0006
FFF006
FFE006
1C0006
18000E
18000E
18000C
18001C
180038
380078
3800F0
3007E0
3FFF80
3FFE00
ENDCHAR

STARTCHAR Ncommaaccent
ENCODING 209
SWIDTH 740 0
DWIDTH 24 0
BBX 22 31 1 -7
BITMAP
10001C
18001C
180018
1C0018
3E0018
3A0018
3B0018
338038
31C038
30C030
30E030
707030
703830
703830
601C70
600E70
600670
600760
6003E0
E001E0
E000E0
C000E0
C00060
C00020
000000
000000
00C000
00C000
004000
00C000
008000
ENDCHAR

STARTCHAR Omacron
ENCODING 210
SWIDTH 869 0
DWIDTH 29 0
BBX 25 28 1 0
BITMAP
00FFF000
00FFE000
00000000
00000000
003FC000
01FFF000
07E07C00
0F001E00
1C000E00
38000700
38000380
70000380
60000180
E0000180
E0000180
C0000180
C0000180
C0000380
C0000380
C0000300
E0000700
60000E00
70000E00
38003C00
3C007800
1F03F000
07FFC000
01FF0000
ENDCHAR

STARTCHAR Kcommaaccent
ENCODING 211
SWIDTH 591 0
DWIDTH 20 0
BBX 19 31 1 -7
BITMAP
1801E0
180780
180F00
381E00
383800
387000
30E000
31C000
378000
370000
3E0000
7C0000
760000
670000
638000
638000
61C000
60E000
E07000
E03800
E01C00
C00E00
C00700
C00780
000000
000000
070000
070000
020000
020000
020000
ENDCHAR

STARTCHAR Ocircumflex
ENCODING 212
SWIDTH 869 0
DWIDTH 29 0
BBX 25 29 1 0
BITMAP
00078000
001EC000
0038E000
00F07000
00000000
007FC000
01FFF000
07E07C00
0F001E00
1C000E00
38000700
38000380
70000380
60000180
E0000180
E0000180
C0000180
C0000180
C0000380
C0000380
C0000300
E0000700
60000E00
70000E00
38003C00
3C007800
1F03F000
07FFC000
01FF0000
ENDCHAR

STARTCHAR Otilde
ENCODING 213
SWIDTH 869 0
DWIDTH 29 0
BBX 25 29 1 0
BITMAP
003E3000
00FFF000
0043E000
00000000
00000000
007FC000
01FFF000
07E07C00
0F001E00
1C000E00
38000700
38000380
70000380
60000180
E0000180
E0000180
C0000180
C0000180
C0000380
C0000380
C0000300
E0000700
60000E00
70000E00
38003C00
3C007800
1F03F000
07FFC000
01FF0000
ENDCHAR

STARTCHAR Odieresis
ENCODING 214
SWIDTH 869 0
DWIDTH 29 0
BBX 25 29 1 0
BITMAP
00306000
0078F000
0078F000
00306000
00000000
007FC000
01FFF000
07E07C00
0F001E00
1C000E00
38000700
30000380
70000380
60000180
E0000180
E0000180
C0000180
C0000180
C0000380
C0000380
C0000300
E0000700
60000E00
70000E00
38003C00
3C007800
1F03F000
07FFC000
01FE0000
ENDCHAR

STARTCHAR multiply
ENCODING 215
SWIDTH 606 0
DWIDTH 20 0
BBX 14 14 3 5
BITMAP
4008
E01C
7038
3870
1CE0
0EC0
0780
0780
0FC0
1CE0
3870
7038
E01C
4008
ENDCHAR

STARTCHAR Oslash
ENCODING 216
SWIDTH 868 0
DWIDTH 29 0
BBX 25 25 1 -1
BITMAP
007FC300
01FFF700
07E07C00
0F001E00
1E003E00
38007700
3800E300
7001C380
60018180
E0030180
E0070180
C00E0180
C01C0180
C0380380
C0700380
E0E00300
E1C00700
63800E00
77000E00
3B003C00
3C007800
1F03F000
3FFFC000
71FE0000
20000000
ENDCHAR

STARTCHAR Uogonek
ENCODING 217
SWIDTH 655 0
DWIDTH 22 0
BBX 18 30 2 -6
BITMAP
3000C0
3000C0
3000C0
3001C0
7001C0
700180
600180
600180
600180
600180
600380
E00380
E00380
E00300
C00300
C00300
C00700
C00700
C00600
E00E00
E01C00
787C00
3FF800
0FE000
030000
020000
060000
060000
070000
03C000
ENDCHAR

STARTCHAR Uacute
ENCODING 218
SWIDTH 655 0
DWIDTH 22 0
BBX 18 31 2 0
BITMAP
000700
000E00
001C00
003800
007000
000000
000000
3000C0
3000C0
3000C0
3001C0
7001C0
7001C0
700180
600180
600180
600180
600180
E00380
E00380
E00380
C00300
C00300
C00300
C00700
C00600
E00E00
E01C00
787C00
3FF800
0FE000
ENDCHAR

STARTCHAR Ucircumflex
ENCODING 219
SWIDTH 655 0
DWIDTH 22 0
BBX 18 30 2 0
BITMAP
003800
007C00
01EE00
078780
000000
000000
3000C0
3000C0
3000C0
3001C0
7001C0
7001C0
700180
600180
600180
600180
600180
E00380
E00380
E00380
C00300
C00300
C00300
C00700
C00600
E00E00
E01C00
787C00
3FF800
0FE000
ENDCHAR

STARTCHAR Udieresis
ENCODING 220
SWIDTH 655 0
DWIDTH 22 0
BBX 19 29 1 0
BITMAP
018300
03C780
03C780
018300
000000
300060
3000E0
3000E0
3000C0
7000C0
7000C0
7000C0
6000C0
6001C0
6001C0
6001C0
E00180
E00180
E00180
C00180
C00380
C00380
C00300
C00700
E00700
E00E00
783C00
3FF800
0FE000
ENDCHAR

STARTCHAR Utilde
ENCODING 221
SWIDTH 655 0
DWIDTH 22 0
BBX 18 29 2 0
BITMAP
03E100
07FF80
063E00
000000
000000
3000C0
3000C0
3000C0
3001C0
7001C0
7001C0
700180
600180
600180
600180
600180
E00380
E00380
E00300
C00300
C00300
C00300
C00700
C00600
E00E00
E01C00
787C00
3FF800
0FE000
ENDCHAR

STARTCHAR Umacron
ENCODING 222
SWIDTH 655 0
DWIDTH 22 0
BBX 18 29 2 0
BITMAP
07FF00
07FF00
000000
000000
000000
3000C0
3000C0
3000C0
3001C0
7001C0
7001C0
600180
600180
600180
600180
600180
E00380
E00380
E00380
C00300
C00300
C00300
C00700
C00600
E00E00
E01C00
787C00
3FF800
0FE000
ENDCHAR

STARTCHAR germandbls
ENCODING 223
SWIDTH 554 0
DWIDTH 18 0
BBX 15 25 1 0
BITMAP
01F8
07FC
0F1E
1C0E
1806
1806
3806
300E
301C
307C
31F0
73E0
71F0
6038
601C
600C
600C
600C
E00C
E01C
C018
C038
C8F0
DFE0
CFC0
ENDCHAR

STARTCHAR amacron
ENCODING 224
SWIDTH 683 0
DWIDTH 23 0
BBX 19 24 1 0
BITMAP
03FF80
07FF80
000000
000000
000000
000000
01F860
07FE60
1E0760
3803A0
3001E0
6000E0
E000C0
E000C0
C000C0
C000C0
C000C0
C001C0
E001C0
6003C0
700780
3C1D80
1FF980
07E180
ENDCHAR

STARTCHAR aacute
ENCODING 225
SWIDTH 683 0
DWIDTH 23 0
BBX 19 26 1 0
BITMAP
000F00
000E00
001C00
003800
006000
000000
000000
000000
01F860
07FE60
1E0760
3803A0
3001E0
6000E0
E000C0
E000C0
C000C0
C000C0
C000C0
C001C0
E001C0
6003C0
700780
3C1D80
1FF980
07E180
ENDCHAR

STARTCHAR acircumflex
ENCODING 226
SWIDTH 683 0
DWIDTH 23 0
BBX 19 25 1 0
BITMAP
003800
00FC00
01CE00
078780
000000
000000
000000
01F860
07FE60
1E0760
3803A0
3001E0
6000E0
E000C0
E000C0
C000C0
C000C0
C000C0
C001C0
E001C0
6003C0
700780
3C1D80
1FF980
07E180
ENDCHAR

STARTCHAR atilde
ENCODING 227
SWIDTH 683 0
DWIDTH 23 0
BBX 19 24 1 0
BITMAP
03E100
07FF80
061E00
000000
000000
000000
01F860
07FE60
1E0760
3803A0
3001E0
6000E0
E000C0
E000C0
C000C0
C000C0
C000C0
C001C0
E001C0
6003C0
700780
3C1D80
1FF980
07E180
ENDCHAR

STARTCHAR adieresis
ENCODING 228
SWIDTH 683 0
DWIDTH 23 0
BBX 19 25 1 0
BITMAP
018600
03CF00
03CF00
018600
000000
000000
000000
01F860
07FC60
1E0EE0
380360
3001C0
7001C0
E000C0
E000C0
C000C0
C000C0
C001C0
C001C0
E00180
600380
700780
3C1D80
1FF980
07E380
ENDCHAR

STARTCHAR aring
ENCODING 229
SWIDTH 683 0
DWIDTH 23 0
BBX 19 27 1 0
BITMAP
00F800
018C00
010400
010400
018C00
00F800
000000
000000
000000
03F860
0FFE60
1E0760
3803A0
7001E0
6000E0
E000E0
C000C0
C000C0
C000C0
C000C0
C001C0
E001C0
6003C0
7007C0
3C1E80
1FF980
07E180
ENDCHAR

STARTCHAR ae
ENCODING 230
SWIDTH 1157 0
DWIDTH 38 0
BBX 35 18 1 0
BITMAP
01FC31FC00
07FE33FF00
1F07370780
3C01BC01C0
3000F800C0
7000F800E0
6000700060
E000700060
C0007FFFE0
C0007FFFE0
C000600000
C000E00000
E000E00000
6001F00100
7003F80380
3C0EDE0F00
1FFCCFFE00
07F0C3F800
ENDCHAR

STARTCHAR iogonek
ENCODING 231
SWIDTH 200 0
DWIDTH 7 0
BBX 8 31 -2 -6
BITMAP
06
0F
0F
06
00
00
00
0C
0C
0C
0C
0C
0C
1C
18
18
18
18
18
18
18
38
30
30
30
20
40
C0
C0
E0
78
ENDCHAR

STARTCHAR ccaron
ENCODING 232
SWIDTH 647 0
DWIDTH 21 0
BBX 18 25 1 0
BITMAP
070780
038E00
01F800
00F000
000000
000000
000000
01FC00
07FF00
1F0780
3C01C0
300080
600000
E00000
E00000
C00000
C00000
C00000
C00000
E00000
600100
700380
3C1F00
1FFE00
07F800
ENDCHAR

STARTCHAR eacute
ENCODING 233
SWIDTH 650 0
DWIDTH 21 0
BBX 18 26 1 0
BITMAP
000F00
001C00
003800
007000
00E000
000000
000000
000000
03F800
0FFE00
1E0700
380380
7001C0
6000C0
E000C0
FFFFC0
FFFFC0
C00000
C00000
C00000
E00000
600200
700700
3C1E00
1FFC00
07F000
ENDCHAR

STARTCHAR eogonek
ENCODING 234
SWIDTH 650 0
DWIDTH 21 0
BBX 18 24 1 -6
BITMAP
03F800
0FFE00
1E0700
380380
7001C0
6000C0
E000C0
FFFFC0
FFFFC0
C00000
C00000
C00000
E00000
600200
700700
3C1E00
1FFC00
07F000
018000
010000
030000
030000
038000
01E000
ENDCHAR

STARTCHAR edieresis
ENCODING 235
SWIDTH 650 0
DWIDTH 21 0
BBX 18 25 1 0
BITMAP
030600
078F00
078F00
030600
000000
000000
000000
03FC00
0FFE00
1E0700
380380
7001C0
6000C0
E000C0
FFFFC0
FFFFC0
C00000
C00000
C00000
E00000
600200
700700
3C1E00
1FFC00
07F000
ENDCHAR

STARTCHAR edotaccent
ENCODING 236
SWIDTH 650 0
DWIDTH 21 0
BBX 18 25 1 0
BITMAP
006000
00F000
00F000
006000
000000
000000
000000
03F800
0FFE00
1E0F00
380380
7001C0
6000C0
C000C0
FFFFC0
FFFFC0
C00000
C00000
C00000
E00000
600200
700700
3C3E00
1FFC00
07E000
ENDCHAR

STARTCHAR iacute
ENCODING 237
SWIDTH 200 0
DWIDTH 7 0
BBX 9 26 0 0
BITMAP
0780
0E00
1C00
1800
7000
0000
0000
0000
1800
3800
3800
3000
3000
3000
3000
3000
7000
7000
6000
6000
6000
6000
6000
6000
E000
C000
ENDCHAR

STARTCHAR icircumflex
ENCODING 238
SWIDTH 200 0
DWIDTH 7 0
BBX 12 25 -2 0
BITMAP
0F00
1D80
39C0
E0F0
0000
0000
0000
0600
0E00
0E00
0C00
0C00
0C00
0C00
0C00
1C00
1C00
1800
1800
1800
1800
1800
1800
3800
3000
ENDCHAR

STARTCHAR imacron
ENCODING 239
SWIDTH 200 0
DWIDTH 7 0
BBX 12 24 -2 0
BITMAP
FFF0
FFE0
0000
0000
0000
0000
0600
0E00
0E00
0C00
0C00
0C00
0C00
0C00
1C00
1C00
1800
1800
1800
1800
1800
1800
3800
3000
ENDCHAR

STARTCHAR dcroat
ENCODING 240
SWIDTH 685 0
DWIDTH 23 0
BBX 22 24 1 0
BITMAP
000030
000030
001FFC
001FFC
000070
000060
01F860
07FE60
1E0760
380360
3001E0
6000E0
E000E0
E000C0
C000C0
C000C0
C000C0
C001C0
E001C0
6003C0
700780
3C1D80
1FF980
07E180
ENDCHAR

STARTCHAR ncommaaccent
ENCODING 241
SWIDTH 610 0
DWIDTH 20 0
BBX 16 25 1 -7
BITMAP
31F8
33FC
3E0E
3C07
3803
7003
7003
6003
6003
6003
6007
6007
E006
E006
C006
C006
C006
C00E
0000
0000
0300
0700
0100
0200
0200
ENDCHAR

STARTCHAR omacron
ENCODING 242
SWIDTH 655 0
DWIDTH 22 0
BBX 18 24 1 0
BITMAP
07FF00
07FF00
000000
000000
000000
000000
03F800
0FFE00
1E0F00
380380
300180
6001C0
6000C0
C000C0
C000C0
C000C0
C000C0
C001C0
E00180
600380
700700
3C1E00
1FFC00
07E000
ENDCHAR

STARTCHAR kcommaaccent
ENCODING 243
SWIDTH 502 0
DWIDTH 17 0
BBX 15 32 1 -7
BITMAP
1800
1800
1800
1800
3800
3800
3000
301E
303C
3070
31E0
73C0
7700
6E00
7800
7C00
6E00
6E00
6700
E380
C1C0
C0E0
C070
C038
C01C
0000
0000
0C00
0C00
0400
0C00
0400
ENDCHAR

STARTCHAR ocircumflex
ENCODING 244
SWIDTH 655 0
DWIDTH 22 0
BBX 18 25 1 0
BITMAP
007000
00F800
03DC00
0F0F00
000000
000000
000000
03F800
0FFE00
1E0F00
380380
300180
6001C0
6000C0
C000C0
C000C0
C000C0
C000C0
C001C0
E00180
600380
700700
3C1E00
1FFC00
07E000
ENDCHAR

STARTCHAR otilde
ENCODING 245
SWIDTH 655 0
DWIDTH 22 0
BBX 18 24 1 0
BITMAP
03C300
0FFF00
043E00
000000
000000
000000
03F800
0FFE00
1E0F00
380380
300180
6001C0
6000C0
C000C0
C000C0
C000C0
C000C0
C001C0
E00180
600380
700700
3C1E00
1FFC00
07E000
ENDCHAR

STARTCHAR odieresis
ENCODING 246
SWIDTH 655 0
DWIDTH 22 0
BBX 18 25 1 0
BITMAP
030600
078F00
078F00
030600
000000
000000
000000
03F800
0FFE00
1E0700
380380
300180
6001C0
6000C0
C000C0
C000C0
C000C0
C000C0
C001C0
E00180
600380
700700
3C1E00
1FFC00
07F000
ENDCHAR

STARTCHAR divide
ENCODING 247
SWIDTH 606 0
DWIDTH 20 0
BBX 17 15 1 4
BITMAP
01C000
01C000
01C000
000000
000000
000000
FFFF80
FFFF80
000000
000000
000000
000000
01C000
01C000
01C000
ENDCHAR

STARTCHAR oslash
ENCODING 248
SWIDTH 653 0
DWIDTH 22 0
BBX 18 20 1 -1
BITMAP
000080
03F8C0
0FFFC0
1E0F00
380780
700F80
601DC0
6038C0
C070C0
C0E0C0
C0C0C0
C1C0C0
C381C0
E70180
6E0380
780700
3C1E00
7FFC00
E7E000
400000
ENDCHAR

STARTCHAR uogonek
ENCODING 249
SWIDTH 608 0
DWIDTH 20 0
BBX 16 24 2 -6
BITMAP
6003
6007
6006
6006
6006
6006
E006
C006
C00E
C00E
C00C
C00C
C00C
C01C
6038
7070
3FE0
0FC0
0600
0400
0C00
0C00
0E00
0780
ENDCHAR

STARTCHAR uacute
ENCODING 250
SWIDTH 608 0
DWIDTH 20 0
BBX 16 26 2 0
BITMAP
001E
0038
0070
00E0
01C0
0000
0000
0000
7003
6003
6003
6003
6007
6007
E006
E006
C006
C006
C006
C00E
C00C
E00C
601C
7878
3FF0
0FC0
ENDCHAR

STARTCHAR ucircumflex
ENCODING 251
SWIDTH 608 0
DWIDTH 20 0
BBX 16 25 2 0
BITMAP
00F0
01D8
071C
1E0E
0000
0000
0000
7003
6003
6003
6003
6007
6007
E006
E006
C006
C006
C006
C00E
C00C
E00C
601C
7878
3FF0
0FC0
ENDCHAR

STARTCHAR udieresis
ENCODING 252
SWIDTH 608 0
DWIDTH 20 0
BBX 16 25 2 0
BITMAP
060C
0F1E
0F1E
060C
0000
0000
0000
6003
6003
6003
6003
6003
6007
E007
C006
C006
C006
C006
C006
C00E
E00C
601C
7878
3FF0
0FC0
ENDCHAR

STARTCHAR utilde
ENCODING 253
SWIDTH 608 0
DWIDTH 20 0
BBX 16 25 2 0
BITMAP
07C2
0FFF
0C7C
0000
0000
0000
0000
7003
6003
6003
6003
6007
6007
E006
E006
C006
C006
C006
C00E
C00C
E00C
601C
7878
3FF0
0FC0
ENDCHAR

STARTCHAR umacron
ENCODING 254
SWIDTH 608 0
DWIDTH 20 0
BBX 16 24 2 0
BITMAP
0FFE
0FFE
0000
0000
0000
0000
7003
6003
6003
6003
6007
6007
E006
E006
C006
C006
C006
C00E
C00C
E00C
601C
7878
3FF0
0FC0
ENDCHAR

STARTCHAR dotaccent
ENCODING 255
SWIDTH 222 0
DWIDTH 7 0
BBX 4 4 3 21
BITMAP
60
F0
F0
60
ENDCHAR
ENDFONT
